<svg width="64" height="64" viewBox="0 0 64 64" fill="none" xmlns="http://www.w3.org/2000/svg">
<g clip-path="url(#clip0)">
<path d="M62 40H4V55H62V40Z" fill="url(#paint0_linear)"/>
<path d="M21 53H63V57H5C3.93913 57 2.92172 56.5786 2.17157 55.8284C1.42143 55.0783 1 54.0609 1 53V41C1 39.9391 1.42143 38.9217 2.17157 38.1716C2.92172 37.4214 3.93913 37 5 37H63V41H5V53H15" fill="url(#paint1_linear)"/>
<path d="M63 55V57H5C3.93913 57 2.92172 56.5786 2.17157 55.8284C1.42143 55.0783 1 54.0609 1 53V51C1 52.0609 1.42143 53.0783 2.17157 53.8284C2.92172 54.5786 3.93913 55 5 55H63Z" fill="#5B8DC9"/>
<path d="M21 54L18 53L15 54V46H21V54Z" fill="url(#paint2_linear)"/>
<path d="M39.19 13.08C43.46 13.69 46 18 46 22.23C46 28.69 40.93 37 36 37C33.54 37 32.78 36.08 32 36.08C31.22 36.08 30.43 37 28 37C23.09 37 18 28.69 18 22.23C18 17.62 21 13 25.88 13C28.32 13 30.36 13.92 32 13.92L39.19 13.08Z" fill="#6C63FF"/>
<path d="M36 14H32C32 12.4087 32.6321 10.8826 33.7574 9.75736C34.8826 8.63214 36.4087 8 38 8H42C42 9.5913 41.3679 11.1174 40.2426 12.2426C39.1174 13.3679 37.5913 14 36 14V14Z" fill="white"/>
<path d="M42 8C42 9.5913 41.3679 11.1174 40.2426 12.2426C39.1174 13.3679 37.5913 14 36 14H32C31.9982 13.3179 32.1166 12.6409 32.35 12C35.69 12 38.1 12.4 40.24 10.24C40.8772 9.61268 41.3599 8.84584 41.65 8H42Z" fill="white"/>
<path d="M44.52 28.87C42.67 33.27 39.31 37 36 37C33.54 37 32.78 36.08 32 36.08C31.22 36.08 30.43 37 28 37C24.71 37 21.35 33.27 19.5 28.87C25.37 37 30.75 33.08 32 33.08C33.25 33.08 38.68 36.94 44.52 28.87Z" fill="#6C63FF"/>
<path d="M62 41H5V43H62V41Z" fill="#DFE3EA"/>
<path d="M63 42C63.2652 42 63.5196 41.8946 63.7071 41.7071C63.8946 41.5196 64 41.2652 64 41V37C64 36.7348 63.8946 36.4804 63.7071 36.2929C63.5196 36.1054 63.2652 36 63 36H40.75C42.6474 34.2296 44.1763 32.1017 45.2489 29.7386C46.3214 27.3755 46.9165 24.8238 47 22.23C47 18.35 45 14.15 41.25 12.61C42.3796 11.3403 43.0025 9.69942 43 8C43 7.73478 42.8946 7.48043 42.7071 7.29289C42.5196 7.10535 42.2652 7 42 7C38.11 7 35.15 6.5 32.63 9.52C31.44 5.93 27 5.06 27 7C27 7.26521 27.1054 7.51957 27.2929 7.7071C27.4804 7.89464 27.7348 8 28 8C28.12 8 31 8.05 31 12V12.81C29.3236 12.3746 27.6089 12.1033 25.88 12C20.32 12 17 17.2 17 22.23C17.0831 24.8248 17.679 27.3774 18.7535 29.7408C19.8279 32.1041 21.3595 34.2314 23.26 36H5C3.67392 36 2.40215 36.5268 1.46447 37.4645C0.526784 38.4021 0 39.6739 0 41L0 53C0 54.3261 0.526784 55.5978 1.46447 56.5355C2.40215 57.4732 3.67392 58 5 58H63C63.2652 58 63.5196 57.8946 63.7071 57.7071C63.8946 57.5196 64 57.2652 64 57V53C64 52.7348 63.8946 52.4804 63.7071 52.2929C63.5196 52.1054 63.2652 52 63 52V42ZM61 44H9C8.73478 44 8.48043 44.1054 8.29289 44.2929C8.10536 44.4804 8 44.7348 8 45C8 45.2652 8.10536 45.5196 8.29289 45.7071C8.48043 45.8946 8.73478 46 9 46H14V52H6V42H61V44ZM20 52.61C17.57 51.8 18.46 51.79 16 52.61V46H20V52.61ZM38 9H40.9C40.6695 10.1294 40.0558 11.1444 39.1629 11.8733C38.27 12.6022 37.1527 13.0002 36 13H33.1C33.3305 11.8706 33.9442 10.8556 34.8371 10.1267C35.73 9.39778 36.8473 8.99976 38 9V9ZM19 22.23C19 18.18 21.57 14 25.88 14C27.6068 14.1393 29.3192 14.4203 31 14.84V16.84C30.4808 16.6788 29.9837 16.4538 29.52 16.17C29.2943 16.033 29.0236 15.9909 28.767 16.0527C28.5104 16.1145 28.2886 16.2753 28.15 16.5C27.27 17.92 30.51 19 32 19C33.2952 19.0103 34.5574 18.5919 35.59 17.81C35.8048 17.6535 35.9487 17.4181 35.9899 17.1556C36.0312 16.893 35.9665 16.6248 35.81 16.41C35.6535 16.1952 35.4181 16.0513 35.1556 16.01C34.893 15.9688 34.6248 16.0335 34.41 16.19C33.9894 16.5073 33.5102 16.7384 33 16.87V15C36 15 37.43 15.2 39.37 14.13C43 14.86 45 18.79 45 22.23C45 28.41 40 36 36 36C33.74 36 33.11 35.08 32 35.08C30.89 35.08 30.25 36 28 36C23.87 36 19 28.54 19 22.23ZM62 56H5C4.20435 56 3.44129 55.6839 2.87868 55.1213C2.31607 54.5587 2 53.7956 2 53V41C2 40.2043 2.31607 39.4413 2.87868 38.8787C3.44129 38.3161 4.20435 38 5 38H62V40H5C4.73478 40 4.48043 40.1054 4.29289 40.2929C4.10536 40.4804 4 40.7348 4 41V53C4 53.2652 4.10536 53.5196 4.29289 53.7071C4.48043 53.8946 4.73478 54 5 54C17.13 54 13 53.78 14.42 54.81C14.96 55.2 15.21 54.99 18 54.05C20.87 55.05 20.77 55.05 21 55.05C21.2652 55.05 21.5196 54.9446 21.7071 54.7571C21.8946 54.5696 22 54.3152 22 54.05H62V56ZM22 52V46H61V48H28C27.7348 48 27.4804 48.1054 27.2929 48.2929C27.1054 48.4804 27 48.7348 27 49C27 49.2652 27.1054 49.5196 27.2929 49.7071C27.4804 49.8946 27.7348 50 28 50H61V52H22Z" fill="black"/>
</g>
<defs>
<linearGradient id="paint0_linear" x1="33" y1="55" x2="33" y2="40" gradientUnits="userSpaceOnUse">
<stop stop-color="#D4D8E1"/>
<stop offset="1" stop-color="#F3F4F5"/>
</linearGradient>
<linearGradient id="paint1_linear" x1="32" y1="57" x2="32" y2="37" gradientUnits="userSpaceOnUse">
<stop stop-color="#7AA8D7"/>
<stop offset="1" stop-color="#C3D2E7"/>
</linearGradient>
<linearGradient id="paint2_linear" x1="18" y1="54" x2="18" y2="46" gradientUnits="userSpaceOnUse">
<stop stop-color="#FBCC88"/>
<stop offset="1" stop-color="#FFE5C3"/>
</linearGradient>
<clipPath id="clip0">
<rect width="64" height="64" fill="white"/>
</clipPath>
</defs>
</svg>
